# xmcd
#
# Track frame offsets: 
#        150
#        16343
#        30979
#        51178
#        63144
#        79477
#        97920
#        113009
#        133412
#        147874
#        170161
#        186159
#
# Disc length: 2827 seconds
#
# Revision: 0
# Processed by: cddbd v1.5.2PL0 Copyright (c) Steve Scherf et al.
# Submitted via: ExactAudioCopy v0.99pb5
#
DISCID=a00b090c
DTITLE=Larry Burton - 500 Miles Of Highway
DYEAR=2011
DGENRE=Blues
TTITLE0=Come Inside My Room
TTITLE1=High Heels And Tight Blue Jeans
TTITLE2=I've Got Your Body (He Has Your Mind)
TTITLE3=You're So Mean To Me
TTITLE4=Pipe Dream
TTITLE5=Dark Clouds
TTITLE6=I Should Have Known
TTITLE7=Going Back Home
TTITLE8=Good Idea At The Time
TTITLE9=You Hurt Me So Bad
TTITLE10=The Blues Just Stay The Same
TTITLE11=500 Miles Of Highway
EXTD=
EXTT0=
EXTT1=
EXTT2=
EXTT3=
EXTT4=
EXTT5=
EXTT6=
EXTT7=
EXTT8=
EXTT9=
EXTT10=
EXTT11=
PLAYORDER=
